<svg width="594" height="594" viewBox="0 0 594 594" fill="none" xmlns="http://www.w3.org/2000/svg">
<style>
@media (prefers-color-scheme: dark) {
.a { fill: #87CCE8 }
.b { fill: #fff }
}
</style>
<path d="M297.21 0L554.419 148.5V445.5L297.21 594L40 445.5V148.5L297.21 0Z" class="a" fill="#E1F3FA"/>
<path d="M357 549.509C400 524.5 429.5 510.5 472.487 479.155L371.143 452V506.481C371.143 522.591 365.889 537.474 357 549.509Z" fill="#38ACDD"/>
<path d="M225.348 452L123 479.424C165 506.75 188.5 521 239.354 549.593C230.548 537.59 225.348 522.778 225.348 506.75V452Z" fill="#38ACDD"/>
<path d="M372.755 450.019L452.232 471.315C476.826 452.294 492.661 422.496 492.661 389L372 389C372.497 392.428 372.755 395.934 372.755 399.5V450.019Z" fill="#5BB9E0"/>
<path d="M224.665 389C224.168 392.428 223.91 395.934 223.91 399.5V449.75L143.429 471.315C118.836 452.294 103 422.496 103 389L224.665 389Z" fill="#5BB9E0"/>
<path d="M353 334.501C364.01 344.594 370.913 359.095 370.913 375.208C370.913 380.273 370.225 385.26 368.891 390L472.329 390C490.814 364.354 498.045 330.917 489.225 298L353 334.501Z" fill="#5BB9E0"/>
<path d="M239.999 335.51L103.741 299C94.921 331.917 102.152 365.354 120.637 391L224.054 391C222.734 386.279 222.054 381.316 222.054 376.276C222.054 360.138 228.969 345.616 239.999 335.51Z" fill="#5BB9E0"/>
<path d="M150.081 209C123.768 235.314 113.224 271.507 118.193 305.901L241.123 338.841L262.581 321.5L150.081 209Z" fill="#87CCE8"/>
<path d="M444.043 207C470.357 233.314 480.901 269.507 475.932 303.901L353.001 336.841L331.543 319.5L444.043 207Z" fill="#87CCE8"/>
<path d="M342.295 425.745C354.797 420.278 363.461 409.605 367.471 397C367.82 399.887 368 402.826 368 405.807V510.807C368 548.997 336.5 564.5 301 583.101L301 437.97C314.57 436.6 329.682 431.262 342.295 425.745Z" fill="#87CCE8"/>
<path d="M291 438.192C277.009 437.323 260.923 431.668 247.603 425.799C235.888 420.636 227.562 410.899 223.289 399.294C223.098 401.439 223 403.612 223 405.807V510.807C223 549.336 256.5 563.5 291 583.169L291 438.192Z" fill="#87CCE8"/>
<rect x="212" y="109" width="170" height="90" rx="16" fill="#38ACDD"/>
<path fill-rule="evenodd" clip-rule="evenodd" d="M204 125C204 111.745 214.745 101 228 101H366C379.255 101 390 111.745 390 125V183C390 196.255 379.255 207 366 207H228C214.745 207 204 196.255 204 183V125ZM228 117C223.582 117 220 120.582 220 125V183C220 187.418 223.582 191 228 191H366C370.418 191 374 187.418 374 183V125C374 120.582 370.418 117 366 117H228Z" fill="#001A72"/>
<path d="M316.792 325C347.283 325 372 349.717 372 380.208V380.208C372 399.525 361.994 417.699 344.295 425.439C329.552 431.886 311.397 438.091 296.279 437.999C281.571 437.91 263.976 431.826 249.603 425.492C231.957 417.716 222 399.56 222 380.276V380.276C222 349.748 246.748 325 277.276 325L316.792 325Z" fill="#B5E1F1"/>
<path d="M268 321.499C244 301.499 251.5 305.499 222 281.499C222 270.499 228.613 260.137 247.074 250.686L260.542 243.791C283.434 232.07 310.566 232.07 333.458 243.791L346.926 250.686C365.387 260.137 370 273.5 370 283.5C346.926 302.5 345 308 330 321.5L268 321.499Z" fill="#E1F3FA"/>
<path d="M263 360C263 340.67 278.67 325 298 325V325C317.33 325 333 340.67 333 360V360C333 379.33 317.33 395 298 395V395C278.67 395 263 379.33 263 360V360Z" fill="#E1F3FA"/>
<path fill-rule="evenodd" clip-rule="evenodd" d="M143.484 205.402L143.484 162H159.484L159.484 207.983L219.871 268.37C225.739 259.67 233.786 252.405 243.482 247.441L256.95 240.545C282.132 227.652 311.977 227.652 337.159 240.545L350.627 247.441C360.322 252.405 368.368 259.669 374.236 268.368L434.617 207.987V162H450.617V205.398C475.078 230.459 486.407 263.586 484.859 296.194L496.024 293.202L498.094 300.929C506.168 331.06 501.706 361.6 487.924 387H497.961V395C497.961 425.719 485.587 453.55 465.573 473.777L475.771 476.838L471.171 492.162L447.347 485.012L378.054 466.445V510.5C378.054 528.378 375.371 537.635 365.5 551L349.476 548.776C357.383 538.07 362.054 524.842 362.054 510.5L362.046 423.278C357.895 427.131 353.054 430.364 347.555 432.768C335.599 437.997 320.717 443.413 306.578 445.301V582.993H290.578V445.719C275.598 444.38 259.32 438.492 246.432 432.813C241.414 430.601 236.947 427.701 233.054 424.268V510.5C233.054 524.769 237.678 537.934 245.511 548.61L232 554.5C222.221 541.172 217.054 528.286 217.054 510.5V466.062L146.765 485.009L122.938 492.162L118.338 476.838L128.532 473.777C108.518 453.55 96.1442 425.719 96.1442 395L96.1442 387H106.185C92.4025 361.6 87.9411 331.06 96.0145 300.929L98.085 293.202L109.246 296.193C107.698 263.587 119.026 230.462 143.484 205.402ZM149.998 222C131.045 244.334 122.94 272.839 125.597 300.595L237.56 331.059C241.766 327.657 246.417 324.783 251.411 322.538L150.873 222H149.998ZM269.04 317.539C271.756 317.183 274.524 317 277.33 317H316.846C319.721 317 322.552 317.192 325.325 317.564L362.647 279.985C358.176 272.3 351.548 265.887 343.335 261.683L329.867 254.787C309.264 244.239 284.845 244.238 264.242 254.787L250.774 261.683C242.567 265.885 235.941 272.291 231.471 279.97L269.04 317.539ZM378.048 287.183L342.88 322.593C347.823 324.83 352.427 327.685 356.593 331.058L468.508 300.597C471.165 272.84 463.06 244.335 444.107 222H443.231L378.067 287.164L378.048 287.183ZM477.877 314.629L368.87 344.298C375.923 354.497 380.054 366.87 380.054 380.208C380.054 382.482 379.932 384.75 379.689 387H469.277C483.325 365.78 489.334 339.397 484.409 312.879L477.907 314.621L477.877 314.629ZM481.632 403H378.036L378.054 449.88L447.678 468.536C466.736 452.523 479.467 429.26 481.632 403ZM261.586 335.683C256.835 342.599 254.054 350.975 254.054 360C254.054 383.748 273.306 403 297.054 403C320.803 403 340.054 383.748 340.054 360C340.054 350.965 337.268 342.581 332.507 335.66C350.882 342.119 364.054 359.625 364.054 380.208C364.054 396.908 355.448 411.854 341.144 418.109C326.57 424.482 309.72 430.08 296.382 429.999C283.409 429.92 267.083 424.429 252.884 418.171C238.622 411.886 230.054 396.952 230.054 380.276C230.054 359.692 243.216 342.168 261.586 335.683ZM297.054 333C282.143 333 270.054 345.088 270.054 360C270.054 374.912 282.143 387 297.054 387C311.966 387 324.054 374.912 324.054 360C324.054 345.088 311.966 333 297.054 333ZM225.272 344.297L116.228 314.628L116.198 314.62L109.7 312.879C104.775 339.397 110.783 365.78 124.832 387H214.413C214.174 384.772 214.054 382.527 214.054 380.276C214.054 366.908 218.198 354.511 225.272 344.297ZM217.054 403H112.473C114.638 429.257 127.366 452.518 146.422 468.531L217.054 449.491V403Z" fill="#001A72"/>
<path fill-rule="evenodd" clip-rule="evenodd" d="M297.21 18.4752L56 157.738V436.262L297.21 575.525L538.419 436.262V157.738L297.21 18.4752ZM554.419 148.5L297.21 0L40 148.5V445.5L297.21 594L554.419 445.5V148.5Z" class="b" fill="#001A72"/>
</svg>
