<svg viewBox="0 0 618 180" fill="none" xmlns="http://www.w3.org/2000/svg" role="img">
    <title>Scarb</title>
    <path fill="#E1F3FA" d="M90.0634 0L168.006 45V135L90.0634 180L12.1211 135V45L90.0634 0Z"/>
    <path fill="#38ACDD"
          d="M108.182 166.518C121.212 158.939 130.152 154.697 143.178 145.198L112.468 136.97V153.479C112.468 158.361 110.875 162.871 108.182 166.518Z"/>
    <path fill="#38ACDD"
          d="M68.2869 136.97L37.2725 145.28C49.9997 153.561 57.1209 157.879 72.5314 166.543C69.8629 162.906 68.2869 158.417 68.2869 153.561V136.97Z"/>
    <path fill="#5BB9E0"
          d="M112.956 136.369L137.04 142.823C144.493 137.059 149.291 128.029 149.291 117.879L112.727 117.879C112.878 118.918 112.956 119.98 112.956 121.061V136.369Z"/>
    <path fill="#5BB9E0"
          d="M68.0801 117.879C67.9294 118.918 67.8514 119.98 67.8514 121.061V136.288L43.463 142.823C36.0106 137.059 31.2119 128.029 31.2119 117.879L68.0801 117.879Z"/>
    <path fill="#5BB9E0"
          d="M106.97 101.364C110.306 104.422 112.398 108.817 112.398 113.699C112.398 115.234 112.19 116.745 111.785 118.182L143.13 118.182C148.732 110.41 150.923 100.278 148.25 90.303L106.97 101.364Z"/>
    <path fill="#5BB9E0"
          d="M72.727 101.67L31.4369 90.606C28.7641 100.581 30.9555 110.713 36.557 118.485L67.8953 118.485C67.4953 117.054 67.2892 115.55 67.2892 114.023C67.2892 109.133 69.3848 104.732 72.727 101.67Z"/>
    <path fill="#87CCE8"
          d="M45.4793 63.3333C37.5054 71.3071 34.3102 82.2749 35.816 92.6974L73.0677 102.679L79.5702 97.4242L45.4793 63.3333Z"/>
    <path fill="#87CCE8"
          d="M134.559 62.7273C142.533 70.7011 145.728 81.6688 144.222 92.0914L106.97 102.073L100.468 96.8182L134.559 62.7273Z"/>
    <path fill="#87CCE8"
          d="M103.726 129.014C107.514 127.357 110.14 124.123 111.355 120.303C111.461 121.178 111.515 122.068 111.515 122.972V154.79C111.515 166.363 101.97 171.061 91.212 176.697L91.212 132.718C95.3242 132.303 99.9034 130.685 103.726 129.014Z"/>
    <path fill="#87CCE8"
          d="M88.1817 132.785C83.942 132.522 79.0674 130.809 75.0312 129.03C71.4812 127.465 68.9582 124.515 67.6631 120.998C67.6052 121.648 67.5757 122.307 67.5757 122.972V154.79C67.5757 166.466 77.7272 170.758 88.1817 176.718L88.1817 132.785Z"/>
    <rect fill="#38ACDD" x="64.2424" y="33.0303" width="51.5152" height="27.2727" rx="4.84848"/>
    <path fill="#001A72" fill-rule="evenodd" clip-rule="evenodd"
          d="M61.8181 37.8788C61.8181 33.8622 65.0742 30.606 69.0908 30.606H110.909C114.926 30.606 118.182 33.8622 118.182 37.8788V55.4545C118.182 59.4712 114.926 62.7273 110.909 62.7273H69.0908C65.0742 62.7273 61.8181 59.4711 61.8181 55.4545V37.8788ZM69.0908 35.4545C67.752 35.4545 66.6666 36.5399 66.6666 37.8788V55.4545C66.6666 56.7934 67.752 57.8788 69.0908 57.8788H110.909C112.248 57.8788 113.333 56.7934 113.333 55.4545V37.8788C113.333 36.5399 112.248 35.4545 110.909 35.4545H69.0908Z"/>
    <path fill="#B5E1F1"
          d="M95.9976 98.4849C105.237 98.4849 112.727 105.975 112.727 115.215C112.727 121.068 109.695 126.575 104.332 128.921C99.8643 130.875 94.3627 132.755 89.7815 132.727C85.3247 132.7 79.9928 130.856 75.6374 128.937C70.2901 126.581 67.2728 121.079 67.2728 115.235C67.2728 105.984 74.7721 98.4849 84.0231 98.4849L95.9976 98.4849Z"/>
    <path fill="#E1F3FA"
          d="M81.2121 97.4241C73.9394 91.3635 76.2121 92.5756 67.2727 85.3029C67.2727 81.9695 69.2767 78.8296 74.8708 75.9655L78.952 73.8759C85.8891 70.3242 94.1108 70.3242 101.048 73.876L105.129 75.9655C110.723 78.8296 112.121 82.8788 112.121 85.9091C105.129 91.6667 104.545 93.3333 100 97.4243L81.2121 97.4241Z"/>
    <path fill="#E1F3FA"
          d="M79.697 109.091C79.697 103.233 84.4455 98.4849 90.3031 98.4849C96.1606 98.4849 100.909 103.233 100.909 109.091C100.909 114.948 96.1606 119.697 90.3031 119.697C84.4455 119.697 79.697 114.948 79.697 109.091Z"/>
    <path fill="#001A72" fill-rule="evenodd" clip-rule="evenodd"
          d="M43.4801 62.2431L43.4801 49.0909H48.3286L48.3286 63.0252L66.6277 81.3242C68.406 78.6878 70.8442 76.4864 73.7826 74.982L77.8638 72.8925C85.4947 68.9856 94.5385 68.9856 102.169 72.8925L106.251 74.982C109.189 76.4863 111.627 78.6874 113.405 81.3235L131.702 63.0264V49.0909H136.551V62.2419C143.963 69.8361 147.396 79.8745 146.927 89.7557L150.31 88.8491L150.938 91.1907C153.384 100.321 152.032 109.576 147.856 117.273H150.897V119.697C150.897 129.006 147.148 137.439 141.083 143.569L144.173 144.496L142.779 149.14L135.56 146.973L114.562 141.347V154.697C114.562 160.115 113.749 162.92 110.758 166.97L105.902 166.296C108.298 163.051 109.714 159.043 109.714 154.697L109.711 128.266C108.453 129.434 106.986 130.413 105.32 131.142C101.697 132.726 97.1872 134.368 92.9025 134.94V176.665H88.054V135.066C83.5147 134.661 78.5819 132.876 74.6763 131.155C73.1558 130.485 71.8023 129.606 70.6227 128.566V154.697C70.6227 159.021 72.0238 163.01 74.3975 166.246L70.3032 168.03C67.3399 163.991 65.7742 160.087 65.7742 154.697V141.231L44.4744 146.973L37.2541 149.14L35.8601 144.496L38.9494 143.569C32.8843 137.44 29.1347 129.006 29.1347 119.697L29.1347 117.273H32.1775C28.0009 109.576 26.6489 100.321 29.0954 91.1907L29.7229 88.8491L33.105 89.7553C32.636 79.8748 36.0685 69.8371 43.4801 62.2431ZM45.4541 67.2727C39.7107 74.0407 37.2548 82.6784 38.0597 91.0895L71.9881 100.321C73.2626 99.29 74.6718 98.4191 76.1853 97.7387L45.7194 67.2727H45.4541ZM81.5274 96.224C82.3505 96.1161 83.1891 96.0606 84.0396 96.0606H96.0142C96.8854 96.0606 97.743 96.1188 98.5834 96.2314L109.893 84.844C108.538 82.5151 106.53 80.5719 104.041 79.2977L99.9598 77.2082C93.7164 74.0117 86.3169 74.0117 80.0734 77.2082L75.9922 79.2977C73.5051 80.5711 71.4975 82.5125 70.1428 84.8394L81.5274 96.224ZM114.56 87.0253L103.903 97.7555C105.401 98.4334 106.796 99.2984 108.059 100.321L141.972 91.09C142.777 82.6788 140.321 74.0408 134.578 67.2727H134.313L114.566 87.0194L114.56 87.0253ZM144.811 95.3421L111.779 104.333C113.916 107.423 115.168 111.173 115.168 115.215C115.168 115.904 115.131 116.591 115.057 117.273H142.205C146.462 110.842 148.283 102.848 146.791 94.8117L144.821 95.3396L144.811 95.3421ZM145.949 122.121H114.557L114.562 136.327L135.66 141.981C141.435 137.128 145.293 130.079 145.949 122.121ZM79.2686 101.722C77.8289 103.818 76.9863 106.356 76.9863 109.091C76.9863 116.287 82.8202 122.121 90.0166 122.121C97.213 122.121 103.047 116.287 103.047 109.091C103.047 106.353 102.202 103.812 100.76 101.715C106.328 103.672 110.32 108.977 110.32 115.215C110.32 120.275 107.712 124.804 103.377 126.7C98.9606 128.631 93.8547 130.327 89.8128 130.303C85.8817 130.279 80.9345 128.615 76.6316 126.719C72.3097 124.814 69.7136 120.288 69.7136 115.235C69.7136 108.998 73.7019 103.687 79.2686 101.722ZM90.0166 100.909C85.4979 100.909 81.8348 104.572 81.8348 109.091C81.8348 113.61 85.4979 117.273 90.0166 117.273C94.5353 117.273 98.1984 113.61 98.1984 109.091C98.1984 104.572 94.5353 100.909 90.0166 100.909ZM68.2642 104.333L35.2207 95.3418L35.2116 95.3393L33.2426 94.8117C31.7501 102.848 33.5709 110.842 37.8281 117.273H64.9736C64.9014 116.598 64.8651 115.917 64.8651 115.235C64.8651 111.184 66.1208 107.428 68.2642 104.333ZM65.7742 122.121H34.0827C34.7388 130.078 38.5959 137.127 44.3703 141.979L65.7742 136.209V122.121Z"/>
    <path fill="#001A72" fill-rule="evenodd" clip-rule="evenodd"
          d="M90.0634 5.59855L16.9696 47.7993V132.201L90.0634 174.401L163.157 132.201V47.7993L90.0634 5.59855ZM168.006 45L90.0634 0L12.1211 45V135L90.0634 180L168.006 135V45Z"/>
    <path fill="#001A72"
          d="M269 133.68C262.52 133.68 256.8 132.52 251.84 130.2C246.88 127.88 243 124.56 240.2 120.24C237.4 115.92 236 110.72 236 104.64V101.28H251.6V104.64C251.6 109.68 253.16 113.48 256.28 116.04C259.4 118.52 263.64 119.76 269 119.76C274.44 119.76 278.48 118.68 281.12 116.52C283.84 114.36 285.2 111.6 285.2 108.24C285.2 105.92 284.52 104.04 283.16 102.6C281.88 101.16 279.96 100 277.4 99.12C274.92 98.16 271.88 97.28 268.28 96.48L265.52 95.88C259.76 94.6 254.8 93 250.64 91.08C246.56 89.08 243.4 86.48 241.16 83.28C239 80.08 237.92 75.92 237.92 70.8C237.92 65.68 239.12 61.32 241.52 57.72C244 54.04 247.44 51.24 251.84 49.32C256.32 47.32 261.56 46.32 267.56 46.32C273.56 46.32 278.88 47.36 283.52 49.44C288.24 51.44 291.92 54.48 294.56 58.56C297.28 62.56 298.64 67.6 298.64 73.68V77.28H283.04V73.68C283.04 70.48 282.4 67.92 281.12 66C279.92 64 278.16 62.56 275.84 61.68C273.52 60.72 270.76 60.24 267.56 60.24C262.76 60.24 259.2 61.16 256.88 63C254.64 64.76 253.52 67.2 253.52 70.32C253.52 72.4 254.04 74.16 255.08 75.6C256.2 77.04 257.84 78.24 260 79.2C262.16 80.16 264.92 81 268.28 81.72L271.04 82.32C277.04 83.6 282.24 85.24 286.64 87.24C291.12 89.24 294.6 91.88 297.08 95.16C299.56 98.44 300.8 102.64 300.8 107.76C300.8 112.88 299.48 117.4 296.84 121.32C294.28 125.16 290.6 128.2 285.8 130.44C281.08 132.6 275.48 133.68 269 133.68Z"/>
    <path fill="#001A72"
          d="M346.933 133.68C336.533 133.68 328.293 130.8 322.213 125.04C316.133 119.2 313.093 110.88 313.093 100.08V79.92C313.093 69.12 316.133 60.84 322.213 55.08C328.293 49.24 336.533 46.32 346.933 46.32C357.253 46.32 365.213 49.16 370.813 54.84C376.493 60.44 379.333 68.16 379.333 78V78.72H363.733V77.52C363.733 72.56 362.333 68.48 359.533 65.28C356.813 62.08 352.613 60.48 346.933 60.48C341.333 60.48 336.933 62.2 333.733 65.64C330.533 69.08 328.933 73.76 328.933 79.68V100.32C328.933 106.16 330.533 110.84 333.733 114.36C336.933 117.8 341.333 119.52 346.933 119.52C352.613 119.52 356.813 117.92 359.533 114.72C362.333 111.44 363.733 107.36 363.733 102.48V100.32H379.333V102C379.333 111.84 376.493 119.6 370.813 125.28C365.213 130.88 357.253 133.68 346.933 133.68Z"/>
    <path fill="#001A72"
          d="M387.943 132L410.023 48H437.622L459.703 132H443.383L438.823 113.52H408.822L404.262 132H387.943ZM412.542 98.88H435.103L424.902 57.96H422.743L412.542 98.88Z"/>
    <path fill="#001A72"
          d="M472.157 132V48H508.637C513.917 48 518.517 48.92 522.437 50.76C526.357 52.6 529.397 55.2 531.557 58.56C533.717 61.92 534.797 65.88 534.797 70.44V71.88C534.797 76.92 533.597 81 531.197 84.12C528.797 87.24 525.837 89.52 522.317 90.96V93.12C525.517 93.28 527.997 94.4 529.757 96.48C531.517 98.48 532.397 101.16 532.397 104.52V132H516.557V106.8C516.557 104.88 516.037 103.32 514.997 102.12C514.037 100.92 512.397 100.32 510.077 100.32H487.997V132H472.157ZM487.997 85.92H506.957C510.717 85.92 513.637 84.92 515.717 82.92C517.877 80.84 518.957 78.12 518.957 74.76V73.56C518.957 70.2 517.917 67.52 515.837 65.52C513.757 63.44 510.797 62.4 506.957 62.4H487.997V85.92Z"/>
    <path fill="#001A72"
          d="M547.978 132V118.08H559.018V61.92H547.978V48H591.178C596.298 48 600.738 48.88 604.498 50.64C608.338 52.32 611.298 54.76 613.378 57.96C615.538 61.08 616.618 64.84 616.618 69.24V70.44C616.618 74.28 615.898 77.44 614.458 79.92C613.018 82.32 611.298 84.2 609.298 85.56C607.378 86.84 605.538 87.76 603.778 88.32V90.48C605.538 90.96 607.458 91.88 609.538 93.24C611.617 94.52 613.378 96.4 614.818 98.88C616.338 101.36 617.098 104.6 617.098 108.6V109.8C617.098 114.44 616.018 118.44 613.858 121.8C611.698 125.08 608.698 127.6 604.858 129.36C601.098 131.12 596.698 132 591.658 132H547.978ZM574.858 117.6H589.738C593.178 117.6 595.938 116.76 598.018 115.08C600.178 113.4 601.258 111 601.258 107.88V106.68C601.258 103.56 600.217 101.16 598.138 99.48C596.058 97.8 593.258 96.96 589.738 96.96H574.858V117.6ZM574.858 82.56H589.498C592.778 82.56 595.458 81.72 597.538 80.04C599.698 78.36 600.778 76.04 600.778 73.08V71.88C600.778 68.84 599.738 66.52 597.658 64.92C595.578 63.24 592.858 62.4 589.498 62.4H574.858V82.56Z"/>
</svg>
